<?xml version="1.0" standalone="no"?>
<!DOCTYPE svg PUBLIC "-//W3C//DTD SVG 20010904//EN"
 "http://www.w3.org/TR/2001/REC-SVG-20010904/DTD/svg10.dtd">
<svg version="1.0" xmlns="http://www.w3.org/2000/svg"
 width="300.000000pt" height="400.000000pt" viewBox="0 0 300.000000 400.000000"
 preserveAspectRatio="xMidYMid meet">
<metadata>
Created by potrace 1.10, written by Peter Selinger 2001-2011
</metadata>
<g transform="translate(0.000000,400.000000) scale(0.100000,-0.100000)"
fill="#000000" stroke="none">
<path d="M1513 3641 c-122 -42 -202 -151 -219 -300 -3 -33 -10 -61 -14 -61 -4
0 -7 -43 -6 -95 1 -73 5 -97 17 -107 14 -12 22 -35 58 -173 12 -46 41 -77 124
-129 48 -30 57 -33 57 -18 0 19 -34 61 -50 63 -6 1 -14 2 -18 3 -19 3 -81 64
-96 96 l-17 35 21 -24 c24 -28 24 -26 5 30 -9 24 -17 55 -19 69 -2 14 -8 37
-15 53 -6 15 -13 38 -15 51 -2 14 -9 34 -15 45 -11 20 -9 78 4 131 3 14 8 34
10 45 2 11 6 29 9 40 2 11 5 26 5 33 1 7 6 10 11 7 9 -6 14 10 13 43 -1 6 5
12 13 12 8 0 13 5 12 12 -2 6 14 20 35 30 20 10 37 21 37 24 0 3 -6 2 -12 -2
-9 -5 -10 -4 -3 3 14 15 68 27 60 13 -7 -11 8 -14 18 -3 4 3 -1 12 -11 19 -16
13 -16 13 1 14 9 0 17 4 17 9 0 5 16 12 36 15 19 4 41 9 48 12 7 3 27 -6 43
-20 17 -14 33 -23 36 -20 3 3 19 -2 36 -11 28 -14 36 -26 32 -48 -1 -5 2 -6 7
-3 5 3 15 -7 23 -22 7 -15 22 -40 32 -55 14 -21 19 -48 20 -106 1 -44 5 -77 8
-75 19 11 26 -87 10 -129 -7 -18 -6 -27 2 -30 8 -3 20 13 31 40 16 39 17 46 4
61 -22 25 -29 50 -16 58 31 19 -23 214 -59 214 -7 0 -13 7 -13 15 0 22 10 19
36 -12 43 -50 25 -5 -19 49 -55 68 -148 118 -215 118 -26 -1 -70 -9 -99 -19z"/>
<path d="M1655 3571 c-19 -18 -82 -30 -95 -17 -8 8 -10 7 -5 -6 5 -13 14 -16
34 -12 18 4 22 3 12 -4 -21 -15 -4 -34 20 -22 10 6 19 8 19 4 0 -4 9 1 20 11
14 12 17 22 10 30 -5 6 -7 15 -3 18 10 11 -2 8 -12 -2z"/>
<path d="M1441 3507 c-19 -4 -30 -12 -25 -16 14 -13 335 -49 323 -37 -3 3 -50
11 -105 17 -54 7 -124 15 -154 19 l-55 7 69 2 c38 0 67 3 64 6 -9 9 -84 11
-117 2z"/>
<path d="M1734 3479 c-3 -5 6 -9 20 -9 32 0 45 -20 14 -21 -23 -1 -22 -1 2 -8
14 -4 25 -12 25 -18 0 -23 11 -21 13 1 1 13 -5 29 -13 36 -8 7 -13 16 -10 20
3 4 -7 8 -20 8 -14 0 -28 -4 -31 -9z"/>
<path d="M1625 3431 c21 -8 162 -14 154 -7 -3 3 -43 7 -89 10 -47 2 -76 1 -65
-3z"/>
<path d="M1386 3409 c-20 -29 -22 -56 -3 -41 22 18 91 43 79 29 -7 -8 -7 -18
-2 -27 6 -8 10 -11 10 -7 0 15 35 -12 52 -41 16 -27 16 -31 2 -43 -9 -7 -23
-14 -32 -15 -10 0 -21 -2 -27 -4 -28 -7 -105 1 -105 12 0 6 11 26 26 45 15 20
20 33 12 33 -21 0 -33 -13 -47 -48 -12 -29 -12 -34 5 -47 23 -18 106 -19 122
-3 8 8 15 9 20 3 4 -6 14 -11 22 -13 8 -2 12 0 7 4 -4 4 1 17 12 28 23 26 33
64 19 73 -7 4 -8 1 -3 -7 5 -9 4 -11 -3 -6 -7 4 -12 15 -12 25 0 10 -7 17 -17
17 -10 -1 -18 4 -18 9 0 6 3 9 8 8 11 -4 9 15 -3 22 -5 3 -10 1 -10 -5 0 -6
-5 -8 -10 -5 -6 4 -8 11 -5 16 7 11 -28 12 -39 2 -11 -11 -30 -10 -37 0 -4 5
-14 -1 -23 -14z"/>
<path d="M1721 3388 c-13 -4 -28 -5 -34 -2 -7 3 -1 -4 12 -15 25 -23 25 -23
-36 -24 -24 -1 -25 -3 -27 -90 -1 -27 2 -51 5 -53 4 -2 6 4 5 14 0 9 5 16 12
14 9 -2 9 4 -3 21 -16 25 -12 39 10 31 8 -3 12 1 12 11 -2 18 5 23 65 49 41
18 73 22 48 6 -10 -6 -11 -10 -2 -10 6 0 12 -7 12 -15 0 -8 -5 -15 -11 -15 -7
0 -8 -7 -4 -17 4 -10 9 -24 12 -30 7 -19 -22 -16 -66 5 -31 15 -41 16 -55 7
-14 -11 -12 -13 16 -20 56 -12 72 -15 91 -16 9 0 17 -5 17 -10 0 -6 4 -7 10
-4 5 3 12 -6 16 -21 4 -17 2 -29 -6 -34 -10 -6 -10 -15 -2 -38 13 -38 6 -69
-23 -102 -12 -14 -29 -37 -38 -52 -12 -19 -22 -25 -37 -21 -24 6 -25 0 -4 -33
l17 -25 33 32 c18 17 38 45 45 60 6 16 17 29 25 29 16 0 20 6 29 48 8 40 -9
43 -24 5 -10 -24 -10 -25 -5 -3 3 14 6 34 5 45 0 11 0 40 -1 64 0 25 -5 59
-10 77 -10 30 -16 62 -19 105 -1 20 -60 38 -90 27z"/>
<path d="M1495 3309 c5 -7 -6 -9 -36 -4 -30 4 -50 2 -62 -7 -16 -12 -11 -14
45 -14 59 0 83 9 72 28 -3 4 -10 8 -15 8 -6 0 -7 -5 -4 -11z"/>
<path d="M1700 3230 c0 -22 66 -45 90 -30 16 10 19 8 -52 28 -21 6 -38 7 -38
2z"/>
<path d="M1458 3192 c-16 -9 -28 -22 -28 -28 0 -6 -9 -19 -20 -29 -11 -10 -20
-25 -20 -33 0 -8 14 4 30 26 30 42 63 54 73 28 14 -36 131 -42 169 -9 11 10
18 11 23 4 3 -6 3 -11 -2 -11 -4 0 -3 -4 4 -8 7 -4 22 -28 33 -52 16 -34 20
-38 15 -15 -4 16 -18 55 -33 85 -20 43 -27 50 -30 34 -2 -15 -12 -23 -32 -26
-16 -2 -27 -1 -24 4 9 14 -9 9 -28 -9 -17 -16 -20 -16 -36 1 -16 18 -16 18 6
7 14 -8 22 -8 22 -1 0 11 -5 12 -60 14 -27 1 -34 5 -32 19 3 21 4 21 -30 -1z"/>
<path d="M1410 3070 c0 -18 33 -25 180 -39 47 -5 93 -12 103 -16 12 -5 17 -3
15 6 -5 23 -22 38 -30 26 -4 -8 -11 -7 -21 1 -7 7 -17 9 -20 5 -4 -3 -7 -2 -7
4 0 6 -7 14 -16 17 -8 3 -12 2 -9 -4 4 -6 -7 -10 -25 -10 -17 0 -29 4 -26 8 3
5 -18 5 -46 1 -30 -5 -58 -4 -69 1 -23 13 -29 13 -29 0z"/>
<path d="M1505 2983 c14 -10 16 -17 8 -20 -24 -9 -13 -23 18 -23 19 0 28 -4
23 -11 -3 -6 4 -4 17 4 13 8 44 18 68 22 39 6 42 9 25 18 -24 14 -114 16 -114
2 0 -6 -3 -6 -8 1 -4 6 -18 14 -32 17 -24 6 -24 6 -5 -10z"/>
<path d="M1660 2915 c11 -13 8 -15 -14 -16 -38 -2 -44 -3 -52 -11 -4 -5 -23
-8 -42 -8 -29 0 -34 3 -29 19 3 14 1 18 -9 14 -8 -3 -11 -9 -8 -15 10 -15 -50
-4 -64 12 -10 13 -11 13 -6 -3 9 -25 70 -50 129 -53 135 -7 195 -13 207 -20
17 -10 -21 -22 -78 -23 -29 -1 -47 -8 -64 -26 -13 -14 -21 -28 -17 -31 3 -4 1
-16 -5 -28 -13 -22 -15 -28 -17 -50 0 -8 -8 -22 -17 -31 -13 -12 -19 -13 -31
-4 -12 10 -24 2 -71 -46 -31 -32 -46 -50 -32 -41 34 23 70 19 103 -9 23 -21
27 -31 22 -55 -4 -18 -11 -27 -19 -24 -8 3 -16 -4 -19 -15 -3 -14 2 -22 23
-31 22 -9 26 -16 22 -37 -5 -28 18 -53 50 -53 17 0 17 1 -2 20 -30 30 -24 82
9 73 16 -4 18 0 13 24 -3 15 -13 35 -23 44 -10 8 -34 39 -53 67 l-35 52 24 6
c35 9 45 -2 45 -47 0 -32 4 -39 19 -39 10 0 26 -11 35 -25 22 -34 38 -118 24
-126 -6 -4 -12 -40 -14 -80 -2 -52 -8 -77 -20 -88 -9 -9 -14 -11 -11 -5 4 7 0
17 -8 24 -8 7 -15 16 -15 21 0 4 -11 25 -25 45 -16 23 -26 52 -26 78 l-2 41
-6 -49 c-7 -47 -4 -56 55 -172 l63 -122 5 42 c20 160 38 294 42 308 3 11 11
15 22 12 9 -3 5 3 -10 12 -16 10 -28 23 -28 28 0 4 6 3 14 -3 11 -9 15 -6 18
19 3 16 1 30 -3 30 -18 0 -38 -13 -33 -21 3 -5 0 -9 -5 -9 -6 0 -11 6 -12 13
-1 6 -2 20 -3 31 -1 19 -14 29 -49 40 -13 4 -16 12 -12 25 3 10 -1 24 -10 31
-8 7 -15 17 -15 22 0 7 5 6 13 -1 20 -16 27 -2 21 40 -5 30 -3 40 10 45 11 4
14 13 10 29 -4 17 0 24 17 28 13 3 29 1 36 -5 9 -7 20 -6 38 6 30 20 49 20 65
1 10 -12 10 -15 -1 -16 -8 -1 -3 -4 11 -8 17 -5 25 -14 25 -28 0 -12 4 -25 8
-29 4 -4 7 -18 7 -30 0 -12 6 -29 13 -36 7 -7 12 -23 11 -35 -1 -13 3 -20 12
-16 11 4 31 -32 26 -48 -1 -4 8 -5 18 -2 16 4 20 0 20 -20 0 -14 -7 -28 -16
-31 -13 -5 -15 -2 -11 16 5 21 5 21 -7 6 -7 -10 -20 -18 -29 -18 -8 0 -17 -7
-21 -15 -3 -9 -12 -12 -22 -8 -12 4 -15 3 -10 -5 15 -25 -22 0 -44 29 -16 23
-25 28 -33 20 -9 -9 -4 -18 21 -37 17 -14 32 -32 32 -40 0 -8 4 -14 9 -14 5 0
11 -9 14 -20 9 -34 43 -23 87 28 55 61 69 90 49 103 -10 6 -11 9 -1 9 7 0 10
5 7 10 -4 6 -15 8 -24 5 -15 -4 -23 11 -50 91 -42 125 -82 190 -121 199 -17 4
-30 13 -30 21 0 8 -5 14 -11 14 -6 0 -9 -7 -5 -15 4 -12 -3 -15 -29 -15 -19 0
-35 5 -35 10 0 6 0 13 0 18 0 4 5 7 12 7 6 0 13 6 16 14 3 8 0 11 -6 7 -6 -3
-13 -2 -17 4 -3 5 -11 10 -17 10 -7 0 -6 -6 2 -15z m245 -435 c-3 -5 -2 -10 4
-10 6 0 8 -7 5 -15 -4 -10 -14 -13 -30 -9 -14 4 -24 2 -24 -5 0 -6 -7 -8 -16
-4 -13 5 -8 11 22 29 44 27 48 28 39 14z"/>
<path d="M1206 2857 c-42 -51 -46 -53 -198 -103 -65 -21 -115 -40 -113 -42 2
-3 44 9 92 25 48 17 108 36 132 44 32 10 56 29 89 67 24 28 42 52 39 52 -3 0
-22 -19 -41 -43z"/>
<path d="M1285 2881 c-3 -10 -1 -29 4 -42 9 -21 10 -22 11 -4 0 11 3 30 6 43
8 27 -12 30 -21 3z"/>
<path d="M1492 2833 c5 -7 21 -10 37 -7 18 4 32 0 40 -10 18 -22 26 -20 27 7
1 20 -3 22 -56 22 -44 0 -56 -3 -48 -12z"/>
<path d="M1871 2791 c9 -6 62 -22 118 -36 56 -14 110 -28 119 -31 14 -5 15 -4
2 4 -8 6 -60 21 -115 35 -55 14 -109 29 -120 32 -17 5 -17 5 -4 -4z"/>
<path d="M1552 2768 c-16 -16 -15 -83 2 -97 11 -9 15 -7 19 11 4 12 1 28 -5
35 -6 7 -8 24 -6 38 6 29 6 29 -10 13z"/>
<path d="M1677 2734 c-11 -14 -16 -28 -13 -31 3 -4 6 -1 6 5 0 7 6 11 13 10 6
-2 11 3 10 10 -2 6 2 12 7 12 6 0 10 5 10 10 0 17 -14 10 -33 -16z"/>
<path d="M1734 2749 c-3 -5 3 -9 13 -9 15 0 16 -2 3 -10 -11 -7 -12 -10 -2
-10 13 0 42 23 42 33 0 8 -50 5 -56 -4z"/>
<path d="M2131 2716 c10 -9 109 -56 109 -51 0 5 -95 55 -106 55 -4 0 -5 -2 -3
-4z"/>
<path d="M1706 2661 c-32 -35 -48 -68 -37 -75 5 -4 12 0 14 6 4 10 6 10 6 1 1
-9 8 -10 27 -3 14 6 29 8 34 5 5 -3 14 10 21 29 7 20 24 39 41 47 28 14 27 14
-27 15 -47 0 -59 -4 -79 -25z"/>
<path d="M1810 2345 c0 -3 6 -14 12 -25 13 -20 12 -26 -26 -112 -9 -21 -14
-38 -11 -38 3 0 18 28 33 63 l29 62 16 -32 c9 -18 17 -43 17 -58 0 -19 5 -25
20 -25 20 0 20 2 -6 48 -15 26 -38 61 -50 78 -13 17 -20 34 -17 38 4 3 1 6 -5
6 -7 0 -12 -2 -12 -5z"/>
<path d="M1388 2285 c11 -16 76 -87 144 -156 67 -69 85 -85 38 -35 -47 50
-112 120 -144 156 -32 36 -49 52 -38 35z"/>
<path d="M1970 2099 c0 -14 107 -218 115 -221 5 -2 9 -8 7 -13 -1 -6 7 -11 18
-11 18 0 18 2 -5 31 -14 16 -40 60 -59 97 -28 56 -76 130 -76 117z"/>
<path d="M907 1877 c-4 -10 -7 -42 -7 -72 0 -29 -7 -72 -15 -95 -16 -47 -21
-140 -6 -125 5 6 11 37 14 70 2 33 11 78 19 100 16 42 11 161 -5 122z"/>
<path d="M944 1791 c8 -12 142 -101 165 -108 9 -3 -9 13 -39 36 -58 45 -137
90 -126 72z"/>
<path d="M2140 1784 c0 -5 6 -18 14 -29 7 -11 16 -61 20 -115 10 -163 18 -217
27 -195 11 29 11 95 -1 95 -15 0 -12 56 3 69 8 6 17 8 21 4 4 -4 11 -1 16 7 8
13 10 12 10 -2 0 -10 3 -18 8 -18 4 0 18 -3 32 -6 20 -5 15 3 -27 41 -29 25
-53 52 -53 58 0 7 -16 32 -35 56 -19 24 -35 40 -35 35z"/>
<path d="M1170 1635 c7 -8 33 -26 58 -40 41 -23 44 -24 26 -4 -22 24 -103 67
-84 44z"/>
<path d="M842 1170 c-1 -25 -5 -56 -8 -70 -5 -21 -4 -22 6 -7 6 9 9 41 7 70
l-3 52 -2 -45z"/>
<path d="M2092 928 c3 -8 29 -16 68 -20 35 -4 70 -10 78 -13 7 -3 18 -2 24 1
20 12 -17 24 -75 24 -32 0 -68 5 -79 11 -16 9 -19 8 -16 -3z"/>
<path d="M1218 893 c23 -2 59 -2 80 0 20 2 1 4 -43 4 -44 0 -61 -2 -37 -4z"/>
<path d="M801 799 c0 -24 4 -53 9 -64 5 -12 6 4 3 40 -7 72 -13 85 -12 24z"/>
</g>
</svg>
